<?xml version="1.0" encoding="UTF-8" standalone="no"?>
<svg
   version="1.0"
   width="1211.000000pt"
   height="601.000000pt"
   viewBox="0 0 1211.000000 601.000000"
   preserveAspectRatio="xMidYMid meet"
   id="svg18"
   sodipodi:docname="FirstFloor.svg"
   inkscape:version="1.1.2 (b8e25be833, 2022-02-05)"
   xmlns:inkscape="http://www.inkscape.org/namespaces/inkscape"
   xmlns:sodipodi="http://sodipodi.sourceforge.net/DTD/sodipodi-0.dtd"
   xmlns="http://www.w3.org/2000/svg"
   xmlns:svg="http://www.w3.org/2000/svg">
  <defs
     id="defs22" />
  <sodipodi:namedview
     id="namedview20"
     pagecolor="#ffffff"
     bordercolor="#666666"
     borderopacity="1.0"
     inkscape:pageshadow="2"
     inkscape:pageopacity="0.0"
     inkscape:pagecheckerboard="0"
     inkscape:document-units="pt"
     showgrid="false"
     inkscape:zoom="0.67258464"
     inkscape:cx="492.87477"
     inkscape:cy="355.34561"
     inkscape:window-width="1920"
     inkscape:window-height="1017"
     inkscape:window-x="-8"
     inkscape:window-y="-8"
     inkscape:window-maximized="1"
     inkscape:current-layer="svg18" />
  <metadata
     id="metadata2">
Created by potrace 1.16, written by Peter Selinger 2001-2019
</metadata>
  <g
     transform="translate(0.000000,601.000000) scale(0.100000,-0.100000)"
     fill="#000000"
     stroke="none"
     id="g16">
    <path
       d="M900 5760 l0 -250 -25 0 -25 0 0 -605 0 -605 25 0 25 0 0 -194 0 -193 -82 -6 c-360 -27 -685 -300 -790 -664 -20 -67 -23 -102 -23 -238 0 -136 3 -171 23 -238 105 -364 430 -637 790 -664 l82 -6 0 -193 0 -194 -25 0 -25 0 0 -605 0 -605 25 0 25 0 0 -250 0 -250 5605 0 5605 0 0 3005 0 3005 -5605 0 -5605 0 0 -250z m1000 -360 l0 -600 605 0 605 0 0 600 0 600 1695 0 1695 0 0 -900 0 -900 2800 0 2800 0 0 -1245 0 -1245 -2400 0 -2400 0 0 -850 0 -850 -745 0 -745 0 0 1000 0 1000 -655 0 -655 0 0 -1000 0 -1000 -695 0 -695 0 0 600 0 600 -605 0 -605 0 0 -600 0 -600 -495 0 -495 0 0 245 0 245 25 0 25 0 0 605 0 605 -25 0 -25 0 -2 448 c-2 266 -4 347 -5 200 l-3 -248 -38 0 c-20 0 -78 9 -127 19 -349 72 -596 305 -697 658 -32 112 -32 324 0 436 33 116 68 192 127 282 145 218 396 367 661 391 l74 7 3 -249 c1 -150 3 -71 5 199 l2 447 25 0 25 0 0 605 0 605 -25 0 -25 0 0 245 0 245 495 0 495 0 0 -600z m1200 5 l0 -595 -595 0 -595 0 0 595 0 595 595 0 595 0 0 -595z m3500 0 l0 -595 -45 0 -45 0 0 595 0 595 45 0 45 0 0 -595z m5500 0 l0 -595 -2745 0 -2745 0 0 595 0 595 2745 0 2745 0 0 -595z m-11150 -500 l0 -595 -45 0 -45 0 0 595 0 595 45 0 45 0 0 -595z m11150 -400 l0 -295 -2795 0 -2795 0 0 295 0 295 2795 0 2795 0 0 -295z m-6300 -3500 l0 -995 -645 0 -645 0 0 995 0 995 645 0 645 0 0 -995z m-4850 100 l0 -595 -45 0 -45 0 0 595 0 595 45 0 45 0 0 -595z m6750 -250 l0 -845 -195 0 -195 0 0 845 0 845 195 0 195 0 0 -845z m400 0 l0 -845 -195 0 -195 0 0 845 0 845 195 0 195 0 0 -845z m400 0 l0 -845 -195 0 -195 0 0 845 0 845 195 0 195 0 0 -845z m400 0 l0 -845 -195 0 -195 0 0 845 0 845 195 0 195 0 0 -845z m400 0 l0 -845 -195 0 -195 0 0 845 0 845 195 0 195 0 0 -845z m400 0 l0 -845 -195 0 -195 0 0 845 0 845 195 0 195 0 0 -845z m400 0 l0 -845 -195 0 -195 0 0 845 0 845 195 0 195 0 0 -845z m400 0 l0 -845 -195 0 -195 0 0 845 0 845 195 0 195 0 0 -845z m400 0 l0 -845 -195 0 -195 0 0 845 0 845 195 0 195 0 0 -845z m400 0 l0 -845 -195 0 -195 0 0 845 0 845 195 0 195 0 0 -845z m400 0 l0 -845 -195 0 -195 0 0 845 0 845 195 0 195 0 0 -845z m400 0 l0 -845 -195 0 -195 0 0 845 0 845 195 0 195 0 0 -845z m-9000 -250 l0 -595 -595 0 -595 0 0 595 0 595 595 0 595 0 0 -595z"
       id="path4" />
    <path
       d="M7002 4094 c-73 -19 -131 -55 -189 -117 -155 -164 -148 -405 16 -560 98 -93 214 -131 337 -110 86 15 148 46 215 110 164 155 171 396 16 560 -108 114 -250 156 -395 117z m202 -9 c76 -20 134 -55 188 -113 214 -229 86 -601 -225 -655 -165 -28 -343 64 -416 216 -145 301 130 636 453 552z"
       id="path6" />
    <path
       d="M8102 4094 c-73 -19 -131 -55 -189 -117 -155 -164 -148 -405 16 -560 98 -93 214 -131 337 -110 86 15 148 46 215 110 164 155 171 396 16 560 -108 114 -250 156 -395 117z m202 -9 c76 -20 134 -55 188 -113 214 -229 86 -601 -225 -655 -165 -28 -343 64 -416 216 -145 301 130 636 453 552z"
       id="path8" />
    <path
       d="M9202 4094 c-73 -19 -131 -55 -189 -117 -155 -164 -148 -405 16 -560 98 -93 214 -131 337 -110 86 15 148 46 215 110 164 155 171 396 16 560 -108 114 -250 156 -395 117z m202 -9 c76 -20 134 -55 188 -113 214 -229 86 -601 -225 -655 -165 -28 -343 64 -416 216 -145 301 130 636 453 552z"
       id="path10" />
    <path
       d="M10302 4094 c-73 -19 -131 -55 -189 -117 -155 -164 -148 -405 16 -560 98 -93 214 -131 337 -110 86 15 148 46 215 110 164 155 171 396 16 560 -108 114 -250 156 -395 117z m202 -9 c76 -20 134 -55 188 -113 214 -229 86 -601 -225 -655 -165 -28 -343 64 -416 216 -145 301 130 636 453 552z"
       id="path12" />
    <path
       d="M11402 4094 c-73 -19 -131 -55 -189 -117 -155 -164 -148 -405 16 -560 98 -93 214 -131 337 -110 86 15 148 46 215 110 164 155 171 396 16 560 -108 114 -250 156 -395 117z m202 -9 c76 -20 134 -55 188 -113 214 -229 86 -601 -225 -655 -165 -28 -343 64 -416 216 -145 301 130 636 453 552z"
       id="path14" />
  </g>
  <path
     style="fill:none;stroke:#000000;stroke-width:0.75px;stroke-linecap:butt;stroke-linejoin:miter;stroke-opacity:1"
     d="M 310,481 V 600 H 191 V 481 h 119 v 0"
     id="path57" />
  <path
     style="fill:none;stroke:#000000;stroke-width:0.75px;stroke-linecap:butt;stroke-linejoin:miter;stroke-opacity:1"
     d="M 451,401 V 600 H 580 V 401 Z"
     id="path343" />
</svg>
