<?xml version="1.0" encoding="UTF-8" standalone="no"?>
<svg
   version="1.0"
   width="1211.000000pt"
   height="601.000000pt"
   viewBox="0 0 1211.000000 601.000000"
   preserveAspectRatio="xMidYMid meet"
   id="svg20"
   sodipodi:docname="SecondFloor (1).svg"
   inkscape:version="1.1.2 (b8e25be833, 2022-02-05)"
   xmlns:inkscape="http://www.inkscape.org/namespaces/inkscape"
   xmlns:sodipodi="http://sodipodi.sourceforge.net/DTD/sodipodi-0.dtd"
   xmlns="http://www.w3.org/2000/svg"
   xmlns:svg="http://www.w3.org/2000/svg">
  <defs
     id="defs24" />
  <sodipodi:namedview
     id="namedview22"
     pagecolor="#ffffff"
     bordercolor="#666666"
     borderopacity="1.0"
     inkscape:pageshadow="2"
     inkscape:pageopacity="0.0"
     inkscape:pagecheckerboard="0"
     inkscape:document-units="pt"
     showgrid="false"
     inkscape:zoom="0.67258464"
     inkscape:cx="480.98036"
     inkscape:cy="434.1461"
     inkscape:window-width="1920"
     inkscape:window-height="1017"
     inkscape:window-x="-8"
     inkscape:window-y="-8"
     inkscape:window-maximized="1"
     inkscape:current-layer="svg20" />
  <g
     transform="translate(0.000000,601.000000) scale(0.100000,-0.100000)"
     fill="#000000"
     stroke="none"
     id="g18">
    <path
       d="M900 5760 l0 -250 -25 0 -25 0 0 -605 0 -605 25 0 25 0 0 -194 0 -195 -42 -4 -43 -4 48 -1 47 -2 0 200 0 200 25 0 25 0 0 605 0 605 -25 0 -25 0 0 245 0 245 545 0 545 0 0 -600 0 -600 605 0 605 0 0 600 0 600 595 0 595 0 0 -1000 0 -1000 605 0 605 0 0 1000 0 1000 595 0 595 0 0 -1000 0 -1000 605 0 605 0 0 1000 0 1000 2045 0 2045 0 0 -1195 0 -1195 -850 0 -850 0 0 -1800 0 -1800 -1195 0 -1195 0 0 1000 0 1000 -605 0 -605 0 0 -1000 0 -1000 -595 0 -595 0 0 1000 0 1000 -605 0 -605 0 0 -1000 0 -1000 -595 0 -595 0 0 600 0 600 -605 0 -605 0 0 -600 0 -600 -545 0 -545 0 0 245 0 245 25 0 25 0 0 605 0 605 -25 0 -25 0 0 200 0 200 -47 -2 -48 -1 43 -4 42 -4 0 -195 0 -194 -25 0 -25 0 0 -605 0 -605 25 0 25 0 0 -250 0 -250 5605 0 5605 0 0 3005 0 3005 -5605 0 -5605 0 0 -250z m2300 -355 l0 -595 -595 0 -595 0 0 595 0 595 595 0 595 0 0 -595z m2400 -400 l0 -995 -595 0 -595 0 0 995 0 995 595 0 595 0 0 -995z m2400 0 l0 -995 -595 0 -595 0 0 995 0 995 595 0 595 0 0 -995z m-7050 -100 l0 -595 -45 0 -45 0 0 595 0 595 45 0 45 0 0 -595z m11150 -1500 l0 -195 -845 0 -845 0 0 195 0 195 845 0 845 0 0 -195z m0 -400 l0 -195 -845 0 -845 0 0 195 0 195 845 0 845 0 0 -195z m0 -400 l0 -195 -845 0 -845 0 0 195 0 195 845 0 845 0 0 -195z m0 -400 l0 -195 -845 0 -845 0 0 195 0 195 845 0 845 0 0 -195z m-6500 -1200 l0 -995 -595 0 -595 0 0 995 0 995 595 0 595 0 0 -995z m2400 0 l0 -995 -595 0 -595 0 0 995 0 995 595 0 595 0 0 -995z m4100 800 l0 -195 -845 0 -845 0 0 195 0 195 845 0 845 0 0 -195z m-11150 -700 l0 -595 -45 0 -45 0 0 595 0 595 45 0 45 0 0 -595z m11150 300 l0 -195 -845 0 -845 0 0 195 0 195 845 0 845 0 0 -195z m-8900 -800 l0 -595 -595 0 -595 0 0 595 0 595 595 0 595 0 0 -595z m8900 400 l0 -195 -845 0 -845 0 0 195 0 195 845 0 845 0 0 -195z m0 -400 l0 -195 -845 0 -845 0 0 195 0 195 845 0 845 0 0 -195z m0 -400 l0 -195 -845 0 -845 0 0 195 0 195 845 0 845 0 0 -195z"
       id="path2" />
    <path
       d="M677 3879 c-325 -92 -557 -326 -647 -650 -11 -41 -19 -87 -19 -104 1 -23 3 -18 9 17 65 386 362 683 748 748 42 7 43 8 12 8 -19 0 -66 -8 -103 -19z"
       id="path4" />
    <path
       d="M830 3604 c-52 -9 -151 -37 -147 -41 3 -2 31 4 63 13 39 12 92 18 159 18 67 0 120 -6 159 -18 32 -9 60 -15 62 -13 3 2 -22 12 -55 21 -60 17 -196 28 -241 20z"
       id="path6" />
    <path
       d="M607 3528 c-77 -42 -185 -151 -226 -227 -18 -34 -30 -61 -27 -61 3 0 19 27 37 60 41 77 142 178 219 219 33 18 60 34 60 37 0 6 0 6 -63 -28z"
       id="path8" />
    <path
       d="M1140 3556 c0 -3 27 -19 60 -37 123 -65 232 -205 276 -354 24 -81 24 -239 0 -320 -60 -201 -210 -351 -411 -411 -81 -24 -239 -24 -320 0 -149 44 -289 153 -354 276 -18 33 -34 60 -37 60 -18 0 72 -133 127 -189 119 -119 255 -175 424 -175 169 0 305 56 424 175 119 119 175 255 175 424 0 169 -56 305 -175 424 -56 55 -189 145 -189 127z"
       id="path10" />
    <path
       d="M325 3168 c-25 -85 -25 -241 0 -326 10 -34 20 -61 22 -58 2 2 -4 30 -13 62 -24 80 -24 238 0 318 9 32 15 60 13 62 -2 3 -12 -24 -22 -58z"
       id="path12" />
    <path
       d="M4 3005 c0 -49 1 -71 3 -48 2 23 2 64 0 90 -2 26 -3 8 -3 -42z"
       id="path14" />
    <path
       d="M11 2885 c-1 -38 32 -158 66 -239 83 -198 274 -388 472 -471 75 -31 203 -65 240 -64 14 0 -12 8 -59 18 -372 79 -647 365 -710 739 -6 35 -8 40 -9 17z"
       id="path16" />
  </g>
  <path
     style="fill:none;stroke:#000000;stroke-width:0.75px;stroke-linecap:butt;stroke-linejoin:miter;stroke-opacity:1"
     d="M 201,0.99999997 V 120 H 320 V 0.99999997 Z"
     id="path59" />
  <path
     style="fill:none;stroke:#000000;stroke-width:0.75px;stroke-linecap:butt;stroke-linejoin:miter;stroke-opacity:1"
     d="M 441,0.99999997 V 200 H 560 V 0.99999997 Z"
     id="path94" />
  <path
     style="fill:none;stroke:#000000;stroke-width:0.75px;stroke-linecap:butt;stroke-linejoin:miter;stroke-opacity:1"
     d="M 681,0.99999997 V 200 H 800.00003 V 0.99999997 Z"
     id="path209" />
  <path
     style="fill:none;stroke:#000000;stroke-width:0.75px;stroke-linecap:butt;stroke-linejoin:miter;stroke-opacity:1"
     d="M 201,600 V 481 h 119 v 119 z"
     id="path324" />
  <path
     style="fill:none;stroke:#000000;stroke-width:0.75px;stroke-linecap:butt;stroke-linejoin:miter;stroke-opacity:1"
     d="M 441,401 V 600 H 560 V 401 Z"
     id="path326" />
  <path
     style="fill:none;stroke:#000000;stroke-width:0.75px;stroke-linecap:butt;stroke-linejoin:miter;stroke-opacity:1"
     d="M 681,600 V 401 h 119.00003 v 199 z"
     id="path361" />
  <path
     style="fill:none;stroke:#000000;stroke-width:0.75px;stroke-linecap:butt;stroke-linejoin:miter;stroke-opacity:1"
     d="m 91.268377,359.94828 c 79.668633,-3.19205 76.156103,-117.08787 0,-119.06284 -88.9498164,7.43219 -70.641761,120.29145 0,119.06284 z"
     id="path363"
     sodipodi:nodetypes="ccc" />
</svg>
